<svg width="226" height="36" viewBox="0 0 226 36" fill="none" xmlns="http://www.w3.org/2000/svg">
<path d="M17.976 35V20.744H7.992V35H0.12V1.736H7.992V14.6H17.976V1.736H25.848V35H17.976ZM52.4888 1.736L51.6728 7.352H39.9608V15.32H50.1848V20.84H39.9608V29.336H52.4888V35H32.0888V1.736H52.4888ZM74.8744 35L73.1464 27.848H63.4504L61.7704 35H53.6104L63.6424 1.736H73.1944L83.2264 35H74.8744ZM64.7944 22.136H71.8024L68.2984 7.448L64.7944 22.136ZM96.6109 22.28H93.5389V35H85.6669V1.736H96.5629C101.107 1.736 104.515 2.568 106.787 4.232C109.091 5.896 110.243 8.44 110.243 11.864C110.243 14.008 109.731 15.8 108.707 17.24C107.683 18.648 106.067 19.848 103.859 20.84L112.307 35H103.427L96.6109 22.28ZM93.5389 16.856H96.8509C98.6109 16.856 99.9229 16.456 100.787 15.656C101.683 14.856 102.131 13.592 102.131 11.864C102.131 10.264 101.651 9.096 100.691 8.36C99.7629 7.624 98.3229 7.256 96.3709 7.256H93.5389V16.856ZM137.106 1.736L136.338 7.784H128.13V35H120.258V7.784H111.666V1.736H137.106ZM152.029 0.919998C156.765 0.919998 160.445 2.44 163.069 5.48C165.725 8.52 167.053 12.808 167.053 18.344C167.053 21.96 166.445 25.08 165.229 27.704C164.045 30.328 162.317 32.344 160.045 33.752C157.805 35.128 155.133 35.816 152.029 35.816C148.925 35.816 146.253 35.128 144.013 33.752C141.773 32.376 140.045 30.392 138.829 27.8C137.645 25.176 137.053 22.024 137.053 18.344C137.053 14.76 137.645 11.656 138.829 9.032C140.045 6.408 141.773 4.408 144.013 3.032C146.253 1.624 148.925 0.919998 152.029 0.919998ZM152.029 6.68C149.757 6.68 148.061 7.608 146.941 9.464C145.853 11.288 145.309 14.248 145.309 18.344C145.309 22.44 145.869 25.416 146.989 27.272C148.109 29.128 149.789 30.056 152.029 30.056C154.333 30.056 156.029 29.144 157.117 27.32C158.237 25.464 158.797 22.472 158.797 18.344C158.797 14.216 158.237 11.24 157.117 9.416C155.997 7.592 154.301 6.68 152.029 6.68ZM197.264 23.96C197.264 26.232 196.768 28.264 195.776 30.056C194.816 31.848 193.36 33.256 191.408 34.28C189.456 35.304 187.072 35.816 184.256 35.816C180.032 35.816 176.816 34.744 174.608 32.6C172.4 30.456 171.296 27.576 171.296 23.96V1.736H179.168V23.624C179.168 25.768 179.568 27.368 180.368 28.424C181.2 29.448 182.496 29.96 184.256 29.96C186.048 29.96 187.344 29.448 188.144 28.424C188.976 27.368 189.392 25.768 189.392 23.624V1.736H197.264V23.96ZM225.794 1.736L225.026 7.784H216.818V35H208.946V7.784H200.354V1.736H225.794Z" fill="black"/>
</svg>
